<svg xmlns="http://www.w3.org/2000/svg" xmlns:xlink="http://www.w3.org/1999/xlink" width="94.531" height="118.082" viewBox="0 0 94.531 118.082">
  <defs>
    <linearGradient id="linear-gradient" x1="0.853" y1="0.153" x2="-0.005" y2="0.968" gradientUnits="objectBoundingBox">
      <stop offset="0" stop-color="#fcec0f"/>
      <stop offset="1" stop-color="#f6b500"/>
    </linearGradient>
    <clipPath id="clip-path">
      <ellipse id="Ellipse_1168" data-name="Ellipse 1168" cx="35.28" cy="35.28" rx="35.28" ry="35.28" transform="translate(0 27.426) rotate(-22.873)" fill="none"/>
    </clipPath>
    <radialGradient id="radial-gradient" cx="-16.104" cy="-6.738" r="13.31" gradientUnits="objectBoundingBox">
      <stop offset="0" stop-color="#621ffa"/>
      <stop offset="1" stop-color="#1e155a"/>
    </radialGradient>
    <radialGradient id="radial-gradient-2" cx="-5.138" cy="-7.516" r="10.541" xlink:href="#radial-gradient"/>
    <radialGradient id="radial-gradient-3" cx="-3.143" cy="-59.792" r="75.22" xlink:href="#radial-gradient"/>
    <radialGradient id="radial-gradient-4" cx="-2.806" cy="-7.136" r="8.931" xlink:href="#radial-gradient"/>
    <radialGradient id="radial-gradient-5" cx="-1.67" cy="-40.883" r="45.606" xlink:href="#radial-gradient"/>
    <radialGradient id="radial-gradient-6" cx="0.614" cy="-6.585" r="7.51" xlink:href="#radial-gradient"/>
    <radialGradient id="radial-gradient-7" cx="-0.027" cy="-24.513" r="24.668" xlink:href="#radial-gradient"/>
    <radialGradient id="radial-gradient-8" cx="21.97" cy="-6.466" r="7.145" xlink:href="#radial-gradient"/>
    <radialGradient id="radial-gradient-9" cx="3.084" cy="-14.023" r="13.626" xlink:href="#radial-gradient"/>
    <radialGradient id="radial-gradient-10" cx="-6.049" cy="-7.869" r="12.262" xlink:href="#radial-gradient"/>
    <radialGradient id="radial-gradient-11" cx="-4.028" cy="-53.899" r="75.902" xlink:href="#radial-gradient"/>
    <radialGradient id="radial-gradient-12" cx="-7.083" cy="-8.26" r="14.476" xlink:href="#radial-gradient"/>
    <radialGradient id="radial-gradient-13" cx="-5.07" cy="-44.127" r="70.55" xlink:href="#radial-gradient"/>
    <radialGradient id="radial-gradient-14" cx="17.104" cy="-6.738" r="13.31" xlink:href="#radial-gradient"/>
    <radialGradient id="radial-gradient-15" cx="6.138" cy="-7.516" r="10.541" xlink:href="#radial-gradient"/>
    <radialGradient id="radial-gradient-16" cx="4.143" cy="-59.792" r="75.22" xlink:href="#radial-gradient"/>
    <radialGradient id="radial-gradient-17" cx="3.806" cy="-7.136" r="8.931" xlink:href="#radial-gradient"/>
    <radialGradient id="radial-gradient-18" cx="2.67" cy="-40.883" r="45.606" xlink:href="#radial-gradient"/>
    <radialGradient id="radial-gradient-19" cx="0.386" cy="-6.585" r="7.51" xlink:href="#radial-gradient"/>
    <radialGradient id="radial-gradient-20" cx="1.027" cy="-24.513" r="24.668" xlink:href="#radial-gradient"/>
    <radialGradient id="radial-gradient-21" cx="-20.972" cy="-6.466" r="7.145" xlink:href="#radial-gradient"/>
    <radialGradient id="radial-gradient-22" cx="-2.084" cy="-14.023" r="13.626" xlink:href="#radial-gradient"/>
    <radialGradient id="radial-gradient-23" cx="7.049" cy="-7.869" r="12.262" xlink:href="#radial-gradient"/>
    <radialGradient id="radial-gradient-24" cx="5.028" cy="-53.899" r="75.902" xlink:href="#radial-gradient"/>
    <radialGradient id="radial-gradient-25" cx="8.083" cy="-8.26" r="14.476" xlink:href="#radial-gradient"/>
    <radialGradient id="radial-gradient-26" cx="6.07" cy="-44.127" r="70.55" xlink:href="#radial-gradient"/>
  </defs>
  <g id="Group_903140" data-name="Group 903140" transform="translate(-140.686 -151.631)">
    <g id="Group_1621" data-name="Group 1621" transform="translate(141.437 151.631)">
      <path id="Path_6541" data-name="Path 6541" d="M-243.945,93.508A43.854,43.854,0,0,1-221.4,131.853a43.954,43.954,0,0,1-1.292,10.61" transform="translate(311.49 -85.634)" fill="none" stroke="#f8ce07" stroke-linecap="round" stroke-width="1.5"/>
      <path id="Path_6542" data-name="Path 6542" d="M-289.539,143.021a43.892,43.892,0,0,1-1.435-11.169,43.856,43.856,0,0,1,22.533-38.341" transform="translate(293.325 -85.633)" fill="none" stroke="#f8ce07" stroke-linecap="round" stroke-width="1.5"/>
      <path id="Path_6808" data-name="Path 6808" d="M38.336,0A38.336,38.336,0,1,1,0,38.336,38.336,38.336,0,0,1,38.336,0Z" transform="translate(7.883 7.883)" fill="#fff"/>
      <ellipse id="Ellipse_1167" data-name="Ellipse 1167" cx="35.28" cy="35.28" rx="35.28" ry="35.28" transform="translate(0 27.426) rotate(-22.873)" fill="url(#linear-gradient)"/>
      <g id="Group_1620" data-name="Group 1620" transform="translate(0 0)">
        <g id="Group_1619" data-name="Group 1619" clip-path="url(#clip-path)">
          <g id="Group_1618" data-name="Group 1618" transform="translate(11.859 14.857)">
            <g id="Group_1616" data-name="Group 1616" transform="translate(0 39.974)">
              <path id="Path_6543" data-name="Path 6543" d="M-215.4,141.992l-28.467,19.161h-12.65l-27.6-18.634,27.6-6.278h12.644Z" transform="translate(284.115 -123.959)" fill="#242d41"/>
              <g id="Group_1614" data-name="Group 1614" transform="translate(27.602)">
                <path id="Path_6544" data-name="Path 6544" d="M-251.611,141.748h.051V127.381H-264.2v14.367h.057a1.56,1.56,0,0,0-.057.274c0,1.68,2.832,3.043,6.325,3.043s6.324-1.363,6.324-3.043A1.558,1.558,0,0,0-251.611,141.748Z" transform="translate(264.204 -127.381)" fill="#fff"/>
                <path id="Path_6545" data-name="Path 6545" d="M-264.2,135.112a11.1,11.1,0,0,0,6.325,2.142,10.727,10.727,0,0,0,6.319-2.221v-7.652H-264.2Z" transform="translate(264.204 -127.381)" fill="#daddf2"/>
              </g>
              <g id="Group_1615" data-name="Group 1615" transform="translate(28.357 16.934)">
                <path id="Path_6546" data-name="Path 6546" d="M-258.509,139.6l-4.063,2.952,1.552,4.776H-256l1.552-4.776Z" transform="translate(264.079 -139.597)" fill="#fff"/>
                <path id="Path_6547" data-name="Path 6547" d="M-252.563,162.883h-11.1l3.059-17.712h4.979Z" transform="translate(263.659 -137.444)" fill="#fff"/>
              </g>
            </g>
            <g id="Group_1617" data-name="Group 1617" transform="translate(15.451)">
              <path id="Path_6548" data-name="Path 6548" d="M-269.836,129.56l-1.507-14.617a12.682,12.682,0,0,1,12.683-12.683h7.077A12.684,12.684,0,0,1-238.9,114.944l-1.957,14.617c0,4.435-5.659,16.01-14.264,16.01C-263.758,145.57-269.836,134.086-269.836,129.56Z" transform="translate(273.597 -97.11)" fill="#fff"/>
              <path id="Path_6549" data-name="Path 6549" d="M-272.837,119.786c.315,2.029,1.321,5.137,3.126,5.718,2.323.749,1.62-1.133,1-4.156-.462-2.246-1.3-4.964-2.612-5.864C-272.136,114.93-273.378,116.312-272.837,119.786Z" transform="translate(272.969 -92.048)" fill="#fff"/>
              <path id="Path_6550" data-name="Path 6550" d="M-245.163,119.786c-.316,2.029-1.321,5.137-3.126,5.718-2.325.749-1.622-1.133-1-4.156.463-2.246,1.3-4.964,2.612-5.864C-245.864,114.93-244.624,116.312-245.163,119.786Z" transform="translate(281.881 -92.048)" fill="#fff"/>
              <path id="Path_6551" data-name="Path 6551" d="M-238.118,117.444c.015-10.635-3.356-14.554-9.756-16.276l1.234-2.623a9.185,9.185,0,0,0-4.295,2.023c-.507-.062-1.009-.119-1.472-.139l0,0c-16.309-1-18.616,5.111-19.563,12.964a43.724,43.724,0,0,0,1.081,13.944,1.388,1.388,0,0,0,.423-.287,2.64,2.64,0,0,0,2.476,1.734l1.03-11.03,5.32-4.928c1.476,1.913,5.349,4.146,15.265,4.738l-2.628-3.776,6.278,4.137,1.013,10.86a2.649,2.649,0,0,0,2.649-2.649v-1.826a13.127,13.127,0,0,0,.744-1.934A18.552,18.552,0,0,0-238.118,117.444Z" transform="translate(273.277 -98.545)" fill="#242d41"/>
            </g>
          </g>
        </g>
      </g>
    </g>
    <g id="Group_1718" data-name="Group 1718" transform="translate(140.686 215.133)">
      <g id="Group_1669" data-name="Group 1669" transform="translate(72.113)">
        <g id="Group_1668" data-name="Group 1668">
          <g id="Group_1667" data-name="Group 1667">
            <g id="Group_1624" data-name="Group 1624" transform="translate(17.821)">
              <g id="Group_1622" data-name="Group 1622">
                <path id="Path_6552" data-name="Path 6552" d="M-226.273,133.636a3.763,3.763,0,0,1,.349,1.639,4.671,4.671,0,0,1-.25,1.487,4.907,4.907,0,0,1-.693,1.339,3.891,3.891,0,0,1-1.249,1.113,4.468,4.468,0,0,1-.218-1.636,5.567,5.567,0,0,1,.266-1.436,5.184,5.184,0,0,1,.634-1.317A4.338,4.338,0,0,1-226.273,133.636Z" transform="translate(228.336 -133.636)" fill="#ffb42a"/>
              </g>
              <g id="Group_1623" data-name="Group 1623" transform="translate(0.058 2.63)">
                <path id="Path_6553" data-name="Path 6553" d="M-227.1,135.533q-.183.761-.388,1.519-.239.747-.5,1.485a.171.171,0,0,1-.208.118.166.166,0,0,1-.09-.218l0-.011q.3-.719.578-1.449Q-227.391,136.262-227.1,135.533Z" transform="translate(228.294 -135.533)" fill="url(#radial-gradient)"/>
              </g>
            </g>
            <g id="Group_1631" data-name="Group 1631" transform="translate(9.818 9.252)">
              <g id="Group_1627" data-name="Group 1627">
                <g id="Group_1625" data-name="Group 1625">
                  <path id="Path_6554" data-name="Path 6554" d="M-234.1,140.31a4.537,4.537,0,0,1,1.584.9,5.432,5.432,0,0,1,1.087,1.26,5.743,5.743,0,0,1,.688,1.557,4.825,4.825,0,0,1,.134,1.941,4.431,4.431,0,0,1-1.521-.994,6.567,6.567,0,0,1-1.03-1.313,6.773,6.773,0,0,1-.689-1.528A5.262,5.262,0,0,1-234.1,140.31Z" transform="translate(234.109 -140.31)" fill="#ffb42a"/>
                </g>
                <g id="Group_1626" data-name="Group 1626" transform="translate(1.33 1.991)">
                  <path id="Path_6555" data-name="Path 6555" d="M-233.15,141.746q1.243,1.707,2.4,3.51a.3.3,0,0,1-.085.384.239.239,0,0,1-.356-.048l-.015-.026Q-232.118,143.6-233.15,141.746Z" transform="translate(233.15 -141.746)" fill="url(#radial-gradient-2)"/>
                </g>
              </g>
              <g id="Group_1630" data-name="Group 1630" transform="translate(3.256 4.715)">
                <g id="Group_1628" data-name="Group 1628" transform="translate(0.275)">
                  <path id="Path_6556" data-name="Path 6556" d="M-224.753,144.845a5.207,5.207,0,0,1-1.87.941,5.565,5.565,0,0,1-1.754.2,5.446,5.446,0,0,1-1.654-.335,4.223,4.223,0,0,1-1.532-.976,6.122,6.122,0,0,1,1.822-.758,7.271,7.271,0,0,1,1.73-.2,5.8,5.8,0,0,1,1.672.238A3.822,3.822,0,0,1-224.753,144.845Z" transform="translate(231.562 -143.711)" fill="#ffb42a"/>
                </g>
                <g id="Group_1629" data-name="Group 1629" transform="translate(0 0.688)">
                  <path id="Path_6557" data-name="Path 6557" d="M-227.164,144.67q-2.2.119-4.369.082a.235.235,0,0,1-.225-.276.3.3,0,0,1,.288-.269l.03,0Q-229.323,144.5-227.164,144.67Z" transform="translate(231.761 -144.207)" fill="url(#radial-gradient-3)"/>
                </g>
              </g>
            </g>
            <g id="Group_1638" data-name="Group 1638" transform="translate(6.936 11.522)">
              <g id="Group_1634" data-name="Group 1634">
                <g id="Group_1632" data-name="Group 1632">
                  <path id="Path_6558" data-name="Path 6558" d="M-236.144,141.948a5.168,5.168,0,0,1,1.711,1.158,6.251,6.251,0,0,1,1.116,1.525,6.538,6.538,0,0,1,.638,1.822,5.468,5.468,0,0,1-.024,2.207,5,5,0,0,1-1.63-1.26,7.534,7.534,0,0,1-1.047-1.578,7.767,7.767,0,0,1-.643-1.79A5.97,5.97,0,0,1-236.144,141.948Z" transform="translate(236.188 -141.948)" fill="#ffb42a"/>
                </g>
                <g id="Group_1633" data-name="Group 1633" transform="translate(1.362 2.37)">
                  <path id="Path_6559" data-name="Path 6559" d="M-235.206,143.658q1.254,2.044,2.4,4.186a.332.332,0,0,1-.13.426.272.272,0,0,1-.4-.086l-.014-.032Q-234.207,145.85-235.206,143.658Z" transform="translate(235.206 -143.658)" fill="url(#radial-gradient-4)"/>
                </g>
              </g>
              <g id="Group_1637" data-name="Group 1637" transform="translate(3.206 5.941)">
                <g id="Group_1635" data-name="Group 1635" transform="translate(0.314)">
                  <path id="Path_6560" data-name="Path 6560" d="M-225.962,147.838a5.905,5.905,0,0,1-2.2.9,6.314,6.314,0,0,1-2,.064,6.176,6.176,0,0,1-1.84-.527,4.832,4.832,0,0,1-1.645-1.242,6.936,6.936,0,0,1,2.128-.694,8.274,8.274,0,0,1,1.975-.074,6.6,6.6,0,0,1,1.871.42A4.354,4.354,0,0,1-225.962,147.838Z" transform="translate(233.649 -146.233)" fill="#ffb42a"/>
                </g>
                <g id="Group_1636" data-name="Group 1636" transform="translate(0 0.488)">
                  <path id="Path_6561" data-name="Path 6561" d="M-228.69,147.5q-2.5-.064-4.95-.3a.268.268,0,0,1-.229-.334.341.341,0,0,1,.349-.277l.035.006Q-231.117,147.112-228.69,147.5Z" transform="translate(233.876 -146.585)" fill="url(#radial-gradient-5)"/>
                </g>
              </g>
            </g>
            <g id="Group_1645" data-name="Group 1645" transform="translate(3.534 13.736)">
              <g id="Group_1641" data-name="Group 1641">
                <g id="Group_1639" data-name="Group 1639">
                  <path id="Path_6562" data-name="Path 6562" d="M-238.456,143.545a5.878,5.878,0,0,1,1.773,1.537,7.076,7.076,0,0,1,1.054,1.87,7.5,7.5,0,0,1,.473,2.142,6.217,6.217,0,0,1-.326,2.487,5.68,5.68,0,0,1-1.668-1.643,8.534,8.534,0,0,1-.969-1.921,8.823,8.823,0,0,1-.482-2.106A6.8,6.8,0,0,1-238.456,143.545Z" transform="translate(238.642 -143.545)" fill="#ffb42a"/>
                </g>
                <g id="Group_1640" data-name="Group 1640" transform="translate(1.352 2.853)">
                  <path id="Path_6563" data-name="Path 6563" d="M-237.667,145.6q1.135,2.474,2.136,5.046a.381.381,0,0,1-.205.463.31.31,0,0,1-.439-.152l-.011-.037Q-236.837,148.211-237.667,145.6Z" transform="translate(237.667 -145.603)" fill="url(#radial-gradient-6)"/>
                </g>
              </g>
              <g id="Group_1644" data-name="Group 1644" transform="translate(2.834 7.568)">
                <g id="Group_1642" data-name="Group 1642" transform="translate(0.362)">
                  <path id="Path_6564" data-name="Path 6564" d="M-227.776,151.457a6.706,6.706,0,0,1-2.6.714,7.183,7.183,0,0,1-2.267-.2,7,7,0,0,1-2.006-.844,5.459,5.459,0,0,1-1.687-1.623,7.893,7.893,0,0,1,2.494-.495,9.346,9.346,0,0,1,2.239.184,7.475,7.475,0,0,1,2.053.726A4.919,4.919,0,0,1-227.776,151.457Z" transform="translate(236.337 -149.004)" fill="#ffb42a"/>
                </g>
                <g id="Group_1643" data-name="Group 1643" transform="translate(0 0.153)">
                  <path id="Path_6565" data-name="Path 6565" d="M-230.823,150.8q-2.815-.412-5.544-1.009a.3.3,0,0,1-.213-.406.388.388,0,0,1,.433-.266l.037.01Q-233.509,150.04-230.823,150.8Z" transform="translate(236.598 -149.115)" fill="url(#radial-gradient-7)"/>
                </g>
              </g>
            </g>
            <g id="Group_1652" data-name="Group 1652" transform="translate(0 16.757)">
              <g id="Group_1648" data-name="Group 1648">
                <g id="Group_1646" data-name="Group 1646">
                  <path id="Path_6566" data-name="Path 6566" d="M-240.313,145.724a5.863,5.863,0,0,1,1.307,1.949,7.034,7.034,0,0,1,.525,2.081,7.425,7.425,0,0,1-.105,2.19,6.253,6.253,0,0,1-.966,2.314,5.68,5.68,0,0,1-1.18-2.023,8.6,8.6,0,0,1-.43-2.107,8.855,8.855,0,0,1,.087-2.16A6.8,6.8,0,0,1-240.313,145.724Z" transform="translate(241.192 -145.724)" fill="#ffb42a"/>
                </g>
                <g id="Group_1647" data-name="Group 1647" transform="translate(1.255 3.058)">
                  <path id="Path_6567" data-name="Path 6567" d="M-240.286,147.93q.445,2.687.736,5.429a.381.381,0,0,1-.32.394.308.308,0,0,1-.383-.262.358.358,0,0,1,0-.039Q-240.171,150.665-240.286,147.93Z" transform="translate(240.286 -147.93)" fill="url(#radial-gradient-8)"/>
                </g>
              </g>
              <g id="Group_1651" data-name="Group 1651" transform="translate(1.294 8.233)">
                <g id="Group_1649" data-name="Group 1649" transform="translate(0.369 0.305)">
                  <path id="Path_6568" data-name="Path 6568" d="M-232.243,156.053a6.7,6.7,0,0,1-2.7,0,7.151,7.151,0,0,1-2.135-.786,7.015,7.015,0,0,1-1.713-1.34,5.47,5.47,0,0,1-1.2-2.01,7.872,7.872,0,0,1,2.538.177,9.386,9.386,0,0,1,2.111.765,7.515,7.515,0,0,1,1.79,1.241A4.913,4.913,0,0,1-232.243,156.053Z" transform="translate(239.992 -151.883)" fill="#ffb42a"/>
                </g>
                <g id="Group_1650" data-name="Group 1650">
                  <path id="Path_6569" data-name="Path 6569" d="M-235.017,154.72q-2.608-1.133-5.083-2.427a.3.3,0,0,1-.1-.449.385.385,0,0,1,.487-.143l.035.019Q-237.408,153.279-235.017,154.72Z" transform="translate(240.258 -151.663)" fill="url(#radial-gradient-9)"/>
                </g>
              </g>
            </g>
            <g id="Group_1659" data-name="Group 1659" transform="translate(11.971 6.583)">
              <g id="Group_1655" data-name="Group 1655">
                <g id="Group_1653" data-name="Group 1653">
                  <path id="Path_6570" data-name="Path 6570" d="M-232.552,138.385a3.846,3.846,0,0,1,1.526.64,4.362,4.362,0,0,1,1.058,1.034,4.682,4.682,0,0,1,.686,1.354,4.2,4.2,0,0,1,.171,1.769,3.714,3.714,0,0,1-1.486-.721,5.126,5.126,0,0,1-1.015-1.081,5.239,5.239,0,0,1-.683-1.329A4.438,4.438,0,0,1-232.552,138.385Z" transform="translate(232.556 -138.385)" fill="#ffb42a"/>
                </g>
                <g id="Group_1654" data-name="Group 1654" transform="translate(1.292 1.69)">
                  <path id="Path_6571" data-name="Path 6571" d="M-231.624,139.6q1.216,1.431,2.368,2.937a.293.293,0,0,1-.053.388.241.241,0,0,1-.36-.019l-.018-.028Q-230.611,141.2-231.624,139.6Z" transform="translate(231.624 -139.604)" fill="url(#radial-gradient-10)"/>
                </g>
              </g>
              <g id="Group_1658" data-name="Group 1658" transform="translate(3.2 3.604)">
                <g id="Group_1656" data-name="Group 1656" transform="translate(0.275)">
                  <path id="Path_6572" data-name="Path 6572" d="M-224.023,141.936a4.526,4.526,0,0,1-1.6,1.037,4.516,4.516,0,0,1-1.539.3,4.374,4.374,0,0,1-1.479-.22,3.632,3.632,0,0,1-1.41-.861,5.111,5.111,0,0,1,1.568-.884,5.68,5.68,0,0,1,1.518-.315,4.523,4.523,0,0,1,1.492.139A3.246,3.246,0,0,1-224.023,141.936Z" transform="translate(230.05 -140.985)" fill="#ffb42a"/>
                </g>
                <g id="Group_1657" data-name="Group 1657" transform="translate(0 0.936)">
                  <path id="Path_6573" data-name="Path 6573" d="M-226.142,141.832q-1.94.252-3.859.376a.235.235,0,0,1-.247-.256.3.3,0,0,1,.265-.291.285.285,0,0,1,.035,0Q-228.058,141.8-226.142,141.832Z" transform="translate(230.248 -141.66)" fill="url(#radial-gradient-11)"/>
                </g>
              </g>
            </g>
            <g id="Group_1666" data-name="Group 1666" transform="translate(13.881 3.905)">
              <g id="Group_1662" data-name="Group 1662">
                <g id="Group_1660" data-name="Group 1660">
                  <path id="Path_6574" data-name="Path 6574" d="M-231.172,136.453a3.244,3.244,0,0,1,1.442.4,3.415,3.415,0,0,1,1,.825,3.727,3.727,0,0,1,.656,1.162,3.672,3.672,0,0,1,.175,1.608,3.1,3.1,0,0,1-1.418-.466,3.87,3.87,0,0,1-.969-.864,3.945,3.945,0,0,1-.65-1.142A3.767,3.767,0,0,1-231.172,136.453Z" transform="translate(231.178 -136.453)" fill="#ffb42a"/>
                </g>
                <g id="Group_1661" data-name="Group 1661" transform="translate(1.221 1.407)">
                  <path id="Path_6575" data-name="Path 6575" d="M-230.3,137.468q1.152,1.169,2.261,2.4a.294.294,0,0,1-.022.392.243.243,0,0,1-.362.011c-.008-.01-.015-.021-.024-.032Q-229.338,138.815-230.3,137.468Z" transform="translate(230.297 -137.468)" fill="url(#radial-gradient-12)"/>
                </g>
              </g>
              <g id="Group_1665" data-name="Group 1665" transform="translate(3.03 2.604)">
                <g id="Group_1663" data-name="Group 1663" transform="translate(0.275)">
                  <path id="Path_6576" data-name="Path 6576" d="M-223.562,139.164a3.927,3.927,0,0,1-1.332,1.1,3.536,3.536,0,0,1-1.321.38,3.4,3.4,0,0,1-1.3-.137,3.11,3.11,0,0,1-1.278-.775,4.39,4.39,0,0,1,1.314-.973,4.283,4.283,0,0,1,1.3-.392,3.443,3.443,0,0,1,1.307.067A2.77,2.77,0,0,1-223.562,139.164Z" transform="translate(228.794 -138.332)" fill="#ffb42a"/>
                </g>
                <g id="Group_1664" data-name="Group 1664" transform="translate(0 1.087)">
                  <path id="Path_6577" data-name="Path 6577" d="M-225.386,139.116q-1.674.343-3.338.588a.235.235,0,0,1-.268-.236.3.3,0,0,1,.243-.312l.039,0Q-227.055,139.172-225.386,139.116Z" transform="translate(228.992 -139.116)" fill="url(#radial-gradient-13)"/>
                </g>
              </g>
            </g>
          </g>
        </g>
        <path id="Path_6578" data-name="Path 6578" d="M-223.389,137.785s-3.155,12.3-17.343,20.1" transform="translate(241.369 -132.033)" fill="none" stroke="#ffb42a" stroke-linecap="round" stroke-linejoin="round" stroke-width="0.907"/>
      </g>
      <g id="Group_1717" data-name="Group 1717">
        <g id="Group_1716" data-name="Group 1716">
          <g id="Group_1715" data-name="Group 1715">
            <g id="Group_1672" data-name="Group 1672" transform="translate(2.183)">
              <g id="Group_1670" data-name="Group 1670">
                <path id="Path_6579" data-name="Path 6579" d="M-291.286,133.636a3.786,3.786,0,0,0-.351,1.639,4.708,4.708,0,0,0,.251,1.487,4.905,4.905,0,0,0,.693,1.339,3.892,3.892,0,0,0,1.249,1.113,4.5,4.5,0,0,0,.218-1.636,5.566,5.566,0,0,0-.266-1.436,5.183,5.183,0,0,0-.634-1.317A4.337,4.337,0,0,0-291.286,133.636Z" transform="translate(291.637 -133.636)" fill="#ffb42a"/>
              </g>
              <g id="Group_1671" data-name="Group 1671" transform="translate(1.16 2.63)">
                <path id="Path_6580" data-name="Path 6580" d="M-290.8,135.533q.183.761.388,1.519.239.747.5,1.485a.171.171,0,0,0,.208.118.166.166,0,0,0,.09-.218l0-.011q-.3-.719-.578-1.449Q-290.508,136.262-290.8,135.533Z" transform="translate(290.8 -135.533)" fill="url(#radial-gradient-14)"/>
              </g>
            </g>
            <g id="Group_1679" data-name="Group 1679" transform="translate(2.26 9.252)">
              <g id="Group_1675" data-name="Group 1675" transform="translate(6.574)">
                <g id="Group_1673" data-name="Group 1673" transform="translate(0.221)">
                  <path id="Path_6581" data-name="Path 6581" d="M-283.141,140.31a4.537,4.537,0,0,0-1.584.9,5.431,5.431,0,0,0-1.087,1.26,5.742,5.742,0,0,0-.688,1.557,4.825,4.825,0,0,0-.134,1.941,4.431,4.431,0,0,0,1.521-.994,6.563,6.563,0,0,0,1.03-1.313,6.772,6.772,0,0,0,.689-1.528A5.262,5.262,0,0,0-283.141,140.31Z" transform="translate(286.68 -140.31)" fill="#ffb42a"/>
                </g>
                <g id="Group_1674" data-name="Group 1674" transform="translate(0 1.991)">
                  <path id="Path_6582" data-name="Path 6582" d="M-284.4,141.746q-1.243,1.707-2.4,3.51a.3.3,0,0,0,.085.384.239.239,0,0,0,.356-.048l.015-.026Q-285.435,143.6-284.4,141.746Z" transform="translate(286.839 -141.746)" fill="url(#radial-gradient-15)"/>
                </g>
              </g>
              <g id="Group_1678" data-name="Group 1678" transform="translate(0 4.715)">
                <g id="Group_1676" data-name="Group 1676">
                  <path id="Path_6583" data-name="Path 6583" d="M-291.582,144.845a5.206,5.206,0,0,0,1.87.941,5.565,5.565,0,0,0,1.754.2,5.446,5.446,0,0,0,1.654-.335,4.223,4.223,0,0,0,1.532-.976,6.121,6.121,0,0,0-1.822-.758,7.271,7.271,0,0,0-1.73-.2,5.8,5.8,0,0,0-1.672.238A3.822,3.822,0,0,0-291.582,144.845Z" transform="translate(291.582 -143.711)" fill="#ffb42a"/>
                </g>
                <g id="Group_1677" data-name="Group 1677" transform="translate(2.488 0.688)">
                  <path id="Path_6584" data-name="Path 6584" d="M-289.787,144.67q2.2.119,4.369.082a.235.235,0,0,0,.225-.276.3.3,0,0,0-.288-.269l-.031,0Q-287.629,144.5-289.787,144.67Z" transform="translate(289.787 -144.207)" fill="url(#radial-gradient-16)"/>
                </g>
              </g>
            </g>
            <g id="Group_1686" data-name="Group 1686" transform="translate(4.275 11.522)">
              <g id="Group_1682" data-name="Group 1682" transform="translate(7.416)">
                <g id="Group_1680" data-name="Group 1680" transform="translate(0.18)">
                  <path id="Path_6585" data-name="Path 6585" d="M-281.083,141.948a5.167,5.167,0,0,0-1.711,1.158,6.252,6.252,0,0,0-1.116,1.525,6.537,6.537,0,0,0-.638,1.822,5.469,5.469,0,0,0,.024,2.207,5,5,0,0,0,1.63-1.26,7.533,7.533,0,0,0,1.047-1.578,7.768,7.768,0,0,0,.643-1.79A5.969,5.969,0,0,0-281.083,141.948Z" transform="translate(284.648 -141.948)" fill="#ffb42a"/>
                </g>
                <g id="Group_1681" data-name="Group 1681" transform="translate(0 2.37)">
                  <path id="Path_6586" data-name="Path 6586" d="M-282.349,143.658q-1.254,2.044-2.4,4.186a.332.332,0,0,0,.13.426.272.272,0,0,0,.4-.086l.014-.032Q-283.349,145.85-282.349,143.658Z" transform="translate(284.778 -143.658)" fill="url(#radial-gradient-17)"/>
                </g>
              </g>
              <g id="Group_1685" data-name="Group 1685" transform="translate(0 5.941)">
                <g id="Group_1683" data-name="Group 1683">
                  <path id="Path_6587" data-name="Path 6587" d="M-290.128,147.838a5.905,5.905,0,0,0,2.2.9,6.314,6.314,0,0,0,2,.064,6.176,6.176,0,0,0,1.84-.527,4.833,4.833,0,0,0,1.645-1.242,6.936,6.936,0,0,0-2.128-.694,8.273,8.273,0,0,0-1.975-.074,6.59,6.59,0,0,0-1.871.42A4.354,4.354,0,0,0-290.128,147.838Z" transform="translate(290.128 -146.233)" fill="#ffb42a"/>
                </g>
                <g id="Group_1684" data-name="Group 1684" transform="translate(2.815 0.488)">
                  <path id="Path_6588" data-name="Path 6588" d="M-288.1,147.5q2.5-.064,4.95-.3a.268.268,0,0,0,.229-.334.341.341,0,0,0-.349-.277l-.035.006Q-285.67,147.112-288.1,147.5Z" transform="translate(288.097 -146.585)" fill="url(#radial-gradient-18)"/>
                </g>
              </g>
            </g>
            <g id="Group_1693" data-name="Group 1693" transform="translate(7.127 13.736)">
              <g id="Group_1689" data-name="Group 1689" transform="translate(8.248)">
                <g id="Group_1687" data-name="Group 1687" transform="translate(0.013)">
                  <path id="Path_6589" data-name="Path 6589" d="M-278.8,143.545a5.877,5.877,0,0,0-1.773,1.537,7.075,7.075,0,0,0-1.054,1.87,7.5,7.5,0,0,0-.473,2.142,6.217,6.217,0,0,0,.326,2.487,5.68,5.68,0,0,0,1.668-1.643,8.532,8.532,0,0,0,.969-1.921,8.817,8.817,0,0,0,.482-2.106A6.794,6.794,0,0,0-278.8,143.545Z" transform="translate(282.112 -143.545)" fill="#ffb42a"/>
                </g>
                <g id="Group_1688" data-name="Group 1688" transform="translate(0 2.853)">
                  <path id="Path_6590" data-name="Path 6590" d="M-279.964,145.6q-1.135,2.474-2.136,5.046a.381.381,0,0,0,.205.463.31.31,0,0,0,.44-.152l.011-.037Q-280.794,148.211-279.964,145.6Z" transform="translate(282.121 -145.603)" fill="url(#radial-gradient-19)"/>
                </g>
              </g>
              <g id="Group_1692" data-name="Group 1692" transform="translate(0 7.568)">
                <g id="Group_1690" data-name="Group 1690">
                  <path id="Path_6591" data-name="Path 6591" d="M-288.071,151.457a6.706,6.706,0,0,0,2.6.714,7.183,7.183,0,0,0,2.267-.2,7,7,0,0,0,2.006-.844,5.459,5.459,0,0,0,1.687-1.623,7.893,7.893,0,0,0-2.494-.495,9.34,9.34,0,0,0-2.239.184,7.475,7.475,0,0,0-2.053.726A4.919,4.919,0,0,0-288.071,151.457Z" transform="translate(288.071 -149.004)" fill="#ffb42a"/>
                </g>
                <g id="Group_1691" data-name="Group 1691" transform="translate(3.148 0.153)">
                  <path id="Path_6592" data-name="Path 6592" d="M-285.8,150.8q2.815-.412,5.544-1.009a.3.3,0,0,0,.213-.406.388.388,0,0,0-.433-.266l-.037.01Q-283.114,150.04-285.8,150.8Z" transform="translate(285.8 -149.115)" fill="url(#radial-gradient-20)"/>
                </g>
              </g>
            </g>
            <g id="Group_1700" data-name="Group 1700" transform="translate(13.006 16.757)">
              <g id="Group_1696" data-name="Group 1696" transform="translate(6.664)">
                <g id="Group_1694" data-name="Group 1694">
                  <path id="Path_6593" data-name="Path 6593" d="M-277.153,145.724a5.863,5.863,0,0,0-1.307,1.949,7.036,7.036,0,0,0-.525,2.081,7.426,7.426,0,0,0,.105,2.19,6.253,6.253,0,0,0,.966,2.314,5.681,5.681,0,0,0,1.18-2.023,8.6,8.6,0,0,0,.43-2.107,8.855,8.855,0,0,0-.087-2.16A6.8,6.8,0,0,0-277.153,145.724Z" transform="translate(279.023 -145.724)" fill="#ffb42a"/>
                </g>
                <g id="Group_1695" data-name="Group 1695" transform="translate(0.755 3.058)">
                  <path id="Path_6594" data-name="Path 6594" d="M-277.741,147.93q-.445,2.687-.736,5.429a.381.381,0,0,0,.32.394.308.308,0,0,0,.383-.262.358.358,0,0,0,0-.039Q-277.856,150.665-277.741,147.93Z" transform="translate(278.478 -147.93)" fill="url(#radial-gradient-21)"/>
                </g>
              </g>
              <g id="Group_1699" data-name="Group 1699" transform="translate(0 8.233)">
                <g id="Group_1697" data-name="Group 1697" transform="translate(0 0.305)">
                  <path id="Path_6595" data-name="Path 6595" d="M-283.83,156.053a6.7,6.7,0,0,0,2.7,0,7.151,7.151,0,0,0,2.135-.786,7.014,7.014,0,0,0,1.713-1.34,5.47,5.47,0,0,0,1.2-2.01,7.872,7.872,0,0,0-2.538.177,9.386,9.386,0,0,0-2.111.765,7.516,7.516,0,0,0-1.79,1.241A4.913,4.913,0,0,0-283.83,156.053Z" transform="translate(283.83 -151.883)" fill="#ffb42a"/>
                </g>
                <g id="Group_1698" data-name="Group 1698" transform="translate(2.876)">
                  <path id="Path_6596" data-name="Path 6596" d="M-281.755,154.72q2.608-1.133,5.083-2.427a.3.3,0,0,0,.1-.449.385.385,0,0,0-.487-.143l-.035.019Q-279.364,153.279-281.755,154.72Z" transform="translate(281.755 -151.663)" fill="url(#radial-gradient-22)"/>
                </g>
              </g>
            </g>
            <g id="Group_1707" data-name="Group 1707" transform="translate(0.945 6.583)">
              <g id="Group_1703" data-name="Group 1703" transform="translate(5.79)">
                <g id="Group_1701" data-name="Group 1701" transform="translate(0.236)">
                  <path id="Path_6597" data-name="Path 6597" d="M-284.712,138.385a3.846,3.846,0,0,0-1.526.64,4.361,4.361,0,0,0-1.058,1.034,4.683,4.683,0,0,0-.686,1.354,4.2,4.2,0,0,0-.171,1.769,3.714,3.714,0,0,0,1.486-.721,5.127,5.127,0,0,0,1.015-1.081,5.238,5.238,0,0,0,.683-1.329A4.439,4.439,0,0,0-284.712,138.385Z" transform="translate(288.183 -138.385)" fill="#ffb42a"/>
                </g>
                <g id="Group_1702" data-name="Group 1702" transform="translate(0 1.69)">
                  <path id="Path_6598" data-name="Path 6598" d="M-285.934,139.6q-1.216,1.431-2.368,2.937a.293.293,0,0,0,.053.388.241.241,0,0,0,.36-.019l.018-.028Q-286.947,141.2-285.934,139.6Z" transform="translate(288.353 -139.604)" fill="url(#radial-gradient-23)"/>
                </g>
              </g>
              <g id="Group_1706" data-name="Group 1706" transform="translate(0 3.604)">
                <g id="Group_1704" data-name="Group 1704">
                  <path id="Path_6599" data-name="Path 6599" d="M-292.53,141.936a4.527,4.527,0,0,0,1.6,1.037,4.516,4.516,0,0,0,1.539.3,4.373,4.373,0,0,0,1.479-.22,3.632,3.632,0,0,0,1.41-.861,5.111,5.111,0,0,0-1.568-.884,5.681,5.681,0,0,0-1.518-.315,4.523,4.523,0,0,0-1.492.139A3.246,3.246,0,0,0-292.53,141.936Z" transform="translate(292.53 -140.985)" fill="#ffb42a"/>
                </g>
                <g id="Group_1705" data-name="Group 1705" transform="translate(2.196 0.936)">
                  <path id="Path_6600" data-name="Path 6600" d="M-290.946,141.832q1.94.252,3.859.376a.235.235,0,0,0,.247-.256.3.3,0,0,0-.265-.291.285.285,0,0,0-.035,0Q-289.03,141.8-290.946,141.832Z" transform="translate(290.946 -141.66)" fill="url(#radial-gradient-24)"/>
                </g>
              </g>
            </g>
            <g id="Group_1714" data-name="Group 1714" transform="translate(0 3.905)">
              <g id="Group_1710" data-name="Group 1710" transform="translate(4.989)">
                <g id="Group_1708" data-name="Group 1708" transform="translate(0.244)">
                  <path id="Path_6601" data-name="Path 6601" d="M-286.139,136.453a3.244,3.244,0,0,0-1.442.4,3.415,3.415,0,0,0-1,.825,3.726,3.726,0,0,0-.656,1.162,3.671,3.671,0,0,0-.175,1.608,3.1,3.1,0,0,0,1.418-.466,3.894,3.894,0,0,0,.969-.864,3.977,3.977,0,0,0,.65-1.142A3.766,3.766,0,0,0-286.139,136.453Z" transform="translate(289.437 -136.453)" fill="#ffb42a"/>
                </g>
                <g id="Group_1709" data-name="Group 1709" transform="translate(0 1.407)">
                  <path id="Path_6602" data-name="Path 6602" d="M-287.287,137.468q-1.152,1.169-2.261,2.4a.294.294,0,0,0,.022.392.241.241,0,0,0,.36.011.278.278,0,0,0,.025-.032Q-288.246,138.815-287.287,137.468Z" transform="translate(289.613 -137.468)" fill="url(#radial-gradient-25)"/>
                </g>
              </g>
              <g id="Group_1713" data-name="Group 1713" transform="translate(0 2.604)">
                <g id="Group_1711" data-name="Group 1711">
                  <path id="Path_6603" data-name="Path 6603" d="M-293.212,139.164a3.927,3.927,0,0,0,1.332,1.1,3.536,3.536,0,0,0,1.321.38,3.4,3.4,0,0,0,1.3-.137,3.11,3.11,0,0,0,1.278-.775,4.391,4.391,0,0,0-1.314-.973,4.283,4.283,0,0,0-1.3-.392,3.443,3.443,0,0,0-1.307.067A2.77,2.77,0,0,0-293.212,139.164Z" transform="translate(293.212 -138.332)" fill="#ffb42a"/>
                </g>
                <g id="Group_1712" data-name="Group 1712" transform="translate(1.901 1.087)">
                  <path id="Path_6604" data-name="Path 6604" d="M-291.841,139.116q1.674.343,3.338.588a.235.235,0,0,0,.268-.236.3.3,0,0,0-.243-.312l-.039,0Q-290.172,139.172-291.841,139.116Z" transform="translate(291.841 -139.116)" fill="url(#radial-gradient-26)"/>
                </g>
              </g>
            </g>
          </g>
        </g>
        <path id="Path_6605" data-name="Path 6605" d="M-290.011,137.785s3.155,12.3,17.343,20.1" transform="translate(294.448 -132.033)" fill="none" stroke="#ffb42a" stroke-linecap="round" stroke-linejoin="round" stroke-width="0.907"/>
      </g>
    </g>
    <g id="Group_1573" data-name="Group 1573" transform="translate(1838.559 78.869)">
      <path id="Path_6068" data-name="Path 6068" d="M-1313.175,665.721a15.241,15.241,0,0,0,1.487-7.033q0-.395-.014-.78h2.624c-.009.257-.015.517-.015.78a15.24,15.24,0,0,0,1.487,7.033Z" transform="translate(-340.169 -476.777)" fill="#f8b805"/>
      <path id="Path_6069" data-name="Path 6069" d="M-1271.177,658.688c0-.263.005-.523.015-.78h-2.624q.014.386.014.78c0,.507-.018,1.005-.054,1.489h0a2.846,2.846,0,0,1,2.7,0C-1271.158,659.693-1271.177,659.2-1271.177,658.688Z" transform="translate(-378.084 -476.777)" fill="#f8b805" opacity="0.5" style="mix-blend-mode: multiply;isolation: isolate"/>
      <path id="Path_6070" data-name="Path 6070" d="M-1295.469,657.908h-.376q.012.386.011.78a18.732,18.732,0,0,1-1.173,7.033h.8a28.527,28.527,0,0,0,.746-7.033C-1295.461,658.425-1295.464,658.165-1295.469,657.908Z" transform="translate(-355.748 -476.777)" fill="#f8b805" opacity="0.5" style="mix-blend-mode: screen;isolation: isolate"/>
      <path id="Path_6071" data-name="Path 6071" d="M-1216.726,665.721h-1.39a28.554,28.554,0,0,1-.745-7.033q0-.395.007-.78h.655q-.015.386-.015.78A15.238,15.238,0,0,0-1216.726,665.721Z" transform="translate(-431.047 -476.777)" fill="#f8b805" opacity="0.5" style="mix-blend-mode: multiply;isolation: isolate"/>
      <g id="Group_1572" data-name="Group 1572" transform="translate(-1666.202 163.109)">
        <g id="Group_1563" data-name="Group 1563" transform="translate(0 2.467)">
          <path id="Path_6072" data-name="Path 6072" d="M-1654.164,244.835h0a21.115,21.115,0,0,1-4.958-.492,8.534,8.534,0,0,1-3.886-1.985c-2.177-2.02-3.192-5.412-3.192-10.674a.837.837,0,0,1,.259-.605.838.838,0,0,1,.616-.231c.064,0,6.488.284,11.124.072a.837.837,0,0,1,.616.231.835.835,0,0,1,.26.606V244a.837.837,0,0,1-.247.594A.838.838,0,0,1-1654.164,244.835Zm-10.352-12.28c.1,4.262.947,7,2.646,8.575,1.4,1.3,3.484,1.92,6.869,2.016V232.627C-1658.528,232.74-1662.722,232.619-1664.516,232.555Z" transform="translate(1666.202 -230.846)" fill="#f8b805"/>
          <path id="Path_6073" data-name="Path 6073" d="M-1619.2,256.545a.737.737,0,0,0-.763.765v.008c1.809.064,6.006.185,9.515.072v-.8C-1613.539,256.691-1617.148,256.61-1619.2,256.545Z" transform="translate(1621.646 -255.609)" fill="#f8b805" opacity="0.5" style="mix-blend-mode: multiply;isolation: isolate"/>
          <g id="Group_1558" data-name="Group 1558" transform="translate(1.631 1.701)" opacity="0.5" style="mix-blend-mode: screen;isolation: isolate">
            <g id="Group_1557" data-name="Group 1557">
              <path id="Path_6074" data-name="Path 6074" d="M-1358.7,563.13v-.2A.373.373,0,0,1-1358.7,563.13Z" transform="translate(1368.271 -552.532)" fill="#f8b805"/>
              <path id="Path_6075" data-name="Path 6075" d="M-1621.378,277.551l.019.009h-.019c.1,4.262.947,7,2.646,8.575,1.4,1.3,3.484,1.92,6.868,2.016-.237.4-1.587.2-1.587.2C-1622.6,288.233-1621.378,277.551-1621.378,277.551Z" transform="translate(1621.432 -277.551)" fill="#f8b805"/>
            </g>
          </g>
          <g id="Group_1560" data-name="Group 1560" transform="translate(0.004)" opacity="0.5" style="mix-blend-mode: screen;isolation: isolate">
            <g id="Group_1559" data-name="Group 1559">
              <path id="Path_6076" data-name="Path 6076" d="M-1653.251,244.128V231.887a.838.838,0,0,0-.259-.606.839.839,0,0,0-.617-.231c-4.635.212-11.06-.069-11.125-.072a.838.838,0,0,0-.616.231.835.835,0,0,0-.233.4.837.837,0,0,1,.255-.529.839.839,0,0,1,.617-.231c.064,0,6.489.284,11.124.072a.837.837,0,0,1,.617.231.835.835,0,0,1,.26.606V244a.816.816,0,0,1-.026.207A.719.719,0,0,0-1653.251,244.128Z" transform="translate(1666.101 -230.846)" fill="#f8b805"/>
            </g>
          </g>
          <g id="Group_1562" data-name="Group 1562" transform="translate(0.141 3.969)" opacity="0.5" style="mix-blend-mode: multiply;isolation: isolate">
            <g id="Group_1561" data-name="Group 1561">
              <path id="Path_6077" data-name="Path 6077" d="M-1637.065,432.987a18.445,18.445,0,0,1,2.036.127.837.837,0,0,1-.538.2h0a21.111,21.111,0,0,1-4.958-.492,8.529,8.529,0,0,1-3.886-1.985,9.105,9.105,0,0,1-2.489-4.387C-1645.977,429.247-1643.531,432.91-1637.065,432.987Z" transform="translate(1647.462 -423.29)" fill="#f8b805"/>
              <path id="Path_6078" data-name="Path 6078" d="M-1662.318,339.807Z" transform="translate(1662.318 -339.807)" fill="#f8b805"/>
            </g>
          </g>
        </g>
        <g id="Group_1570" data-name="Group 1570" transform="translate(18.411 2.467)">
          <path id="Path_6079" data-name="Path 6079" d="M-1160.483,244.59a.84.84,0,0,1-.246-.594V231.756a.836.836,0,0,1,.26-.606.837.837,0,0,1,.616-.231c4.635.212,11.06-.069,11.125-.072a.838.838,0,0,1,.616.231.837.837,0,0,1,.259.605c0,5.262-1.014,8.654-3.192,10.674a8.531,8.531,0,0,1-3.885,1.985,21.117,21.117,0,0,1-4.958.492h0A.839.839,0,0,1-1160.483,244.59Zm1.429-11.964v10.519c3.385-.1,5.465-.713,6.869-2.016,1.7-1.576,2.547-4.313,2.646-8.575C-1151.333,232.619-1155.526,232.74-1159.053,232.627Z" transform="translate(1160.729 -230.846)" fill="#f8b805"/>
          <path id="Path_6080" data-name="Path 6080" d="M-1114.729,256.591v.8c3.508.113,7.705-.007,9.515-.072v-.008a.736.736,0,0,0-.761-.765C-1108.026,256.61-1111.634,256.691-1114.729,256.591Z" transform="translate(1116.404 -255.609)" fill="#f8b805" opacity="0.5" style="mix-blend-mode: multiply;isolation: isolate"/>
          <g id="Group_1565" data-name="Group 1565" transform="translate(1.662 1.701)" opacity="0.5" style="mix-blend-mode: screen;isolation: isolate">
            <g id="Group_1564" data-name="Group 1564">
              <path id="Path_6081" data-name="Path 6081" d="M-1115.078,563.13v-.2A.375.375,0,0,0-1115.078,563.13Z" transform="translate(1115.091 -552.532)" fill="#f8b805"/>
              <path id="Path_6082" data-name="Path 6082" d="M-1105.214,277.551l-.018.009h.018c-.1,4.262-.947,7-2.646,8.575-1.4,1.3-3.484,1.92-6.869,2.016.237.4,1.587.2,1.587.2C-1103.992,288.233-1105.214,277.551-1105.214,277.551Z" transform="translate(1114.742 -277.551)" fill="#f8b805"/>
            </g>
          </g>
          <g id="Group_1567" data-name="Group 1567" opacity="0.5" style="mix-blend-mode: screen;isolation: isolate">
            <g id="Group_1566" data-name="Group 1566">
              <path id="Path_6083" data-name="Path 6083" d="M-1160.706,244.128V231.887a.838.838,0,0,1,.259-.606.838.838,0,0,1,.617-.231c4.636.212,11.06-.069,11.125-.072a.838.838,0,0,1,.616.231.838.838,0,0,1,.233.4.839.839,0,0,0-.256-.529.838.838,0,0,0-.616-.231c-.065,0-6.49.284-11.125.072a.837.837,0,0,0-.616.231.836.836,0,0,0-.26.606V244a.856.856,0,0,0,.026.207C-1160.7,244.179-1160.706,244.153-1160.706,244.128Z" transform="translate(1160.729 -230.846)" fill="#f8b805"/>
            </g>
          </g>
          <g id="Group_1569" data-name="Group 1569" transform="translate(0.3 3.969)" opacity="0.5" style="mix-blend-mode: multiply;isolation: isolate">
            <g id="Group_1568" data-name="Group 1568">
              <path id="Path_6084" data-name="Path 6084" d="M-1150.452,432.987a18.445,18.445,0,0,0-2.036.127.836.836,0,0,0,.538.2h0a21.116,21.116,0,0,0,4.958-.492,8.528,8.528,0,0,0,3.885-1.985,9.1,9.1,0,0,0,2.489-4.387C-1141.54,429.247-1143.985,432.91-1150.452,432.987Z" transform="translate(1152.488 -423.29)" fill="#f8b805"/>
              <path id="Path_6085" data-name="Path 6085" d="M-811.113,339.807Z" transform="translate(823.547 -339.807)" fill="#f8b805"/>
            </g>
          </g>
        </g>
        <path id="Path_6086" data-name="Path 6086" d="M-1506.5,163.109a23.956,23.956,0,0,0-.351,4.117c0,8.555,4.4,15.49,9.834,15.49s9.835-6.935,9.835-15.49a23.98,23.98,0,0,0-.352-4.117Z" transform="translate(1512.655 -163.109)" fill="#f8b805"/>
        <path id="Path_6087" data-name="Path 6087" d="M-1506.5,163.109a23.956,23.956,0,0,0-.351,4.117c0,8.555,4.4,15.49,9.834,15.49s9.835-6.935,9.835-15.49a23.98,23.98,0,0,0-.352-4.117Z" transform="translate(1512.655 -163.109)" fill="#f8b805"/>
        <g id="Group_1571" data-name="Group 1571" transform="translate(15.638 0)">
          <path id="Path_6088" data-name="Path 6088" d="M-1227.368,163.109h-3.545a38.012,38.012,0,0,1,.22,4.117c0,8.555-2.757,15.49-6.158,15.49,5.431,0,9.834-6.935,9.834-15.49A24,24,0,0,0-1227.368,163.109Z" transform="translate(1236.851 -163.109)" fill="#f8b805" opacity="0.5" style="mix-blend-mode: multiply;isolation: isolate"/>
        </g>
        <path id="Path_6089" data-name="Path 6089" d="M-1343.384,302.478l1.289,2.611,2.882.419-2.085,2.033.492,2.87-2.578-1.355-2.578,1.355.492-2.87-2.085-2.033,2.882-.419Z" transform="translate(1359.16 -297.401)" fill="#f7a108" opacity="0.5" style="mix-blend-mode: multiply;isolation: isolate"/>
        <path id="Path_6090" data-name="Path 6090" d="M-1472.456,167.226a38.011,38.011,0,0,1,.22-4.117h-2.425a27.078,27.078,0,0,0-.31,4.117c0,8.555,3.882,15.49,8.673,15.49C-1469.7,182.716-1472.456,175.781-1472.456,167.226Z" transform="translate(1481.936 -163.109)" fill="#f8b805" opacity="0.5" style="mix-blend-mode: screen;isolation: isolate"/>
        <circle id="Ellipse_1163" data-name="Ellipse 1163" cx="2.068" cy="2.068" r="2.068" transform="translate(6.414 0.611)" fill="#fff"/>
        <circle id="Ellipse_1164" data-name="Ellipse 1164" cx="0.82" cy="0.82" r="0.82" transform="translate(9.729 3.926)" fill="#fff"/>
        <path id="Path_6091" data-name="Path 6091" d="M-1487.86,163.414c5.162,0,9.347-.137,9.347-.305h-18.693C-1497.206,163.278-1493.021,163.414-1487.86,163.414Z" transform="translate(1503.361 -163.109)" fill="#f8b805" opacity="0.5" style="mix-blend-mode: screen;isolation: isolate"/>
      </g>
      <path id="Path_6092" data-name="Path 6092" d="M-1388.089,872.408h-7.945a1.9,1.9,0,0,0-1.9,1.9h11.744A1.9,1.9,0,0,0-1388.089,872.408Z" transform="translate(-258.498 -683.464)" fill="#f8b805"/>
      <path id="Path_6093" data-name="Path 6093" d="M-1396.034,872.55h7.945a1.9,1.9,0,0,1,1.894,1.757h.006a1.9,1.9,0,0,0-1.9-1.9h-7.945a1.9,1.9,0,0,0-1.9,1.9h.006A1.9,1.9,0,0,1-1396.034,872.55Z" transform="translate(-258.498 -683.464)" fill="#f8b805" opacity="0.5" style="mix-blend-mode: screen;isolation: isolate"/>
      <path id="Path_6094" data-name="Path 6094" d="M-1163.774,874.308h-2.124c0-1.049-.542-1.9-1.212-1.9h1.437A1.9,1.9,0,0,1-1163.774,874.308Z" transform="translate(-480.912 -683.464)" fill="#f8b805" opacity="0.5" style="mix-blend-mode: multiply;isolation: isolate"/>
      <path id="Path_6095" data-name="Path 6095" d="M-1373.12,872.408h-1.568a1.9,1.9,0,0,0-1.9,1.9h1.569A1.9,1.9,0,0,1-1373.12,872.408Z" transform="translate(-279.065 -683.464)" fill="#f8b805" opacity="0.5" style="mix-blend-mode: screen;isolation: isolate"/>
      <path id="Path_6096" data-name="Path 6096" d="M-1397.933,915.511h11.744a1.909,1.909,0,0,0-.032-.342H-1397.9A1.955,1.955,0,0,0-1397.933,915.511Z" transform="translate(-258.498 -724.667)" fill="#f8b805" opacity="0.5" style="mix-blend-mode: multiply;isolation: isolate"/>
    </g>
  </g>
</svg>
