<svg version="1.2" xmlns="http://www.w3.org/2000/svg" viewBox="0 0 147 169" width="147" height="169"><style>tspan{white-space:pre}.a{fill:#fff}.b{fill:none;stroke:#faaa15;stroke-width:.8}.c{fill:none;stroke:#faaa15;stroke-linecap:round;stroke-width:.8}.d{fill:none;stroke:#faaa15;stroke-linecap:round;stroke-width:.8;stroke-dasharray:4}.e{font-size: 35px;fill: #faaa15;font-weight: 250;font-family: "Poppins-Thin", "Poppins"}.f{font-size: 9px;fill: #faaa15;font-weight: 500;font-family: "Poppins-Medium", "Poppins"}.g{fill:#faaa15;stroke:#faaa15;stroke-width:2}.h{fill:#faaa15;stroke:#0c0e3f;stroke-width:.8}.i{fill:#fda913}</style><path class="a" d="m0 0h147v169h-147z"/><path class="b" d="m72.5 34.5c5.6 0 11.1 1.2 16.3 3.3 5.2 2.2 9.9 5.3 13.9 9.3 4 3.9 7.1 8.7 9.3 13.8 2.1 5.2 3.2 10.8 3.2 16.4v83.1h-85.5v-83.1c0-5.6 1.1-11.2 3.3-16.4 2.1-5.1 5.3-9.9 9.2-13.8 4-4 8.7-7.1 13.9-9.3 5.2-2.1 10.7-3.3 16.4-3.3z"/><path class="b" d="m72.5 39.4c5 0 10 1 14.7 2.9 4.7 2 8.9 4.8 12.5 8.4 3.6 3.5 6.4 7.8 8.3 12.5 2 4.6 3 9.6 3 14.7v75h-77.1v-75c0-5.1 1-10.1 3-14.7 1.9-4.7 4.7-9 8.3-12.5 3.6-3.6 7.8-6.4 12.5-8.4 4.7-1.9 9.7-2.9 14.8-2.9z"/><path class="b" d="m33.9 146.1h47v6.8"/><path class="b" d="m49.3 138v-7.7h45.9v8.1h-52.8v7.9"/><path class="b" d="m88.8 146.1h-8.1"/><path class="b" d="m88.4 138.4v7.7"/><path class="b" d="m56.9 129.9v-7.2h54.1"/><path class="b" d="m102.9 122.7v7.6h-7.7"/><path class="b" d="m64.3 122.7v-8.1h46.3"/><path class="b" d="m29.7 160.4l4.2-7.5"/><path class="b" d="m115 160.2l-4-7.3"/><path class="c" d="m26.7 81.9l-25 4.1"/><path class="d" d="m26.7 72.7h-18.6"/><path class="d" d="m29.1 62.6l-28.6-5.7"/><path class="c" d="m31.1 56.1l-25-10.9"/><path class="d" d="m34.7 47.7l-27.8-17.4"/><path class="d" d="m38.4 42l-13.7-14.1"/><path class="c" d="m44.4 37.6l-12.9-21.4"/><path class="d" d="m54.1 32.3l-8.1-17.7"/><path class="d" d="m62.6 30.3l-6.1-29.8"/><path class="c" d="m72.7 29.5v-25.8"/><path class="d" d="m83.5 30.3l5.3-29"/><path class="d" d="m90.8 32.3l8.1-17.7"/><path class="c" d="m101.3 37.6l12.5-20.2"/><path class="d" d="m106.5 42.8l14.1-14.5"/><path class="d" d="m111 48.5l29-18.2"/><path class="c" d="m115 56.1l25-10.9"/><path class="d" d="m117.4 62.6l28.3-5.7"/><path class="d" d="m118.6 71.9l19.8 0.8"/><path class="c" d="m118.6 81.1l25.4 4.9"/><path class="d" d="m90.4 152.7v-2.8"/><path class="d" d="m93.2 152.7v-4.8"/><path class="d" d="m95.2 151.5v-6.1"/><path class="d" d="m98 152.3v-11.3"/><path class="d" d="m100.1 152.7v-7.7"/><path class="d" d="m102.1 152.7v-13.7"/><path class="d" d="m104.9 152.3v-12.9"/><path class="d" d="m107.3 152.7v-16.9"/><path class="d" d="m108.9 152.3v-20.2"/><text style="transform:matrix(1,0,0,1,20.469,207.988)" ><tspan x="0" y="0" class="e">HELIOS
</tspan></text><text style="transform:matrix(1,0,0,1,35.469,224.694)" ><tspan x="0" y="0" class="f">PRODUCTION
</tspan></text><circle class="g" cx="73.3" cy="77.7" r="15.1"/><path class="h" d="m69.8 71.9l2.9-18.2 3.2 17.8"/><path class="h" d="m77.1 71.9l15.7-6.9-13.7 11.7"/><path class="h" d="m80.3 78.7l12.9 9.7-17.3-6.5"/><path class="h" d="m75.9 83.5l-2.8 17.4-2.5-17.4"/><path class="h" d="m68.2 82.3l-15.3 6.1 13.3-10.5"/><path class="h" d="m65.8 76.3l-12.9-10.9 15.7 5.5"/><circle class="h" cx="73.3" cy="77.7" r="8.3"/><path class="i" d="m79.9 61.8l5.8-5.5-2 7.7z"/><path class="i" d="m90.4 76.2l7.6 2.6-7.7 1.8z"/><path class="i" d="m84.4 90.8l2.3 7.7-5.9-5.3z"/><path class="i" d="m67.1 93.8l-5.6 5.7 1.7-7.8z"/><path class="i" d="m56.2 80l-7.7-2.3 7.7-2.1z"/><path class="i" d="m63 63.9l-1.8-7.8 5.6 5.6z"/></svg>